<svg width="16" height="17" viewBox="0 0 16 17" fill="none" xmlns="http://www.w3.org/2000/svg">
<path d="M15 8.03196L8.38111 14.7203C7.57028 15.5397 6.4705 16 5.32377 16C4.17703 16 3.07727 15.5397 2.2664 14.7203C1.45554 13.9009 1 12.7896 1 11.6308C1 10.4721 1.45554 9.36082 2.2664 8.54141L8.88527 1.85312C9.42587 1.30688 10.1591 1 10.9235 1C11.688 1 12.4212 1.30688 12.9618 1.85312C13.5024 2.39937 13.8061 3.14024 13.8061 3.91274C13.8061 4.68525 13.5024 5.42612 12.9618 5.97236L6.33569 12.6607C6.0654 12.9338 5.69881 13.0872 5.31657 13.0872C4.93432 13.0872 4.56773 12.9338 4.29745 12.6607C4.02716 12.3875 3.87531 12.0171 3.87531 11.6308C3.87531 11.2446 4.02716 10.8742 4.29745 10.601L10.4122 4.42946" stroke="#1C498E" stroke-width="1.5" stroke-linecap="round" stroke-linejoin="round"/>
</svg>
